<svg width="33" height="32" viewBox="0 0 33 32" fill="none" xmlns="http://www.w3.org/2000/svg">
<path d="M19.2402 2C19.4495 2.00001 19.6534 2.06721 19.8226 2.19193C19.9917 2.31664 20.1174 2.49244 20.1814 2.694L21.2689 6.112C21.7256 6.338 22.1626 6.592 22.5798 6.878L26.0519 6.122C26.2566 6.07779 26.4699 6.10045 26.6611 6.18671C26.8523 6.27297 27.0115 6.41838 27.1157 6.602L29.8562 11.4C29.9608 11.5835 30.0052 11.7959 29.9828 12.0065C29.9604 12.2172 29.8724 12.4152 29.7316 12.572L27.349 15.232C27.3837 15.7421 27.3837 16.2539 27.349 16.764L29.7316 19.428C29.8724 19.5848 29.9604 19.7828 29.9828 19.9935C30.0052 20.2041 29.9608 20.4165 29.8562 20.6L27.1157 25.4C27.0112 25.5833 26.8519 25.7283 26.6607 25.8141C26.4696 25.9 26.2564 25.9224 26.0519 25.878L22.5798 25.122C22.1646 25.406 21.7256 25.662 21.2709 25.888L20.1814 29.306C20.1174 29.5076 19.9917 29.6834 19.8226 29.8081C19.6534 29.9328 19.4495 30 19.2402 30H13.7592C13.5499 30 13.346 29.9328 13.1769 29.8081C13.0077 29.6834 12.8821 29.5076 12.818 29.306L11.7325 25.89C11.277 25.6647 10.8376 25.4074 10.4176 25.12L6.94751 25.878C6.74279 25.9222 6.52949 25.8996 6.33832 25.8133C6.14714 25.727 5.98798 25.5816 5.88374 25.398L3.14324 20.6C3.03859 20.4165 2.99426 20.2041 3.01665 19.9935C3.03904 19.7828 3.12698 19.5848 3.26781 19.428L5.65042 16.764C5.61591 16.2553 5.61591 15.7447 5.65042 15.236L3.26781 12.572C3.12698 12.4152 3.03904 12.2172 3.01665 12.0065C2.99426 11.7959 3.03859 11.5835 3.14324 11.4L5.88374 6.6C5.98826 6.41675 6.14756 6.27175 6.3387 6.18586C6.52985 6.09997 6.74301 6.07761 6.94751 6.122L10.4176 6.88C10.8368 6.594 11.2758 6.336 11.7325 6.11L12.82 2.694C12.8839 2.49309 13.0089 2.31776 13.1772 2.1931C13.3456 2.06844 13.5486 2.00085 13.7572 2H19.2382H19.2402ZM18.5165 4H14.4829L13.3598 7.534L12.6025 7.908C12.2302 8.09227 11.8708 8.3021 11.5269 8.536L10.8269 9.016L7.23619 8.232L5.21937 11.768L7.68108 14.524L7.62176 15.372C7.59335 15.7902 7.59335 16.2098 7.62176 16.628L7.68108 17.476L5.21542 20.232L7.23421 23.768L10.8249 22.986L11.5249 23.464C11.8689 23.6979 12.2282 23.9077 12.6005 24.092L13.3578 24.466L14.4829 28H18.5205L19.6475 24.464L20.4029 24.092C20.7747 23.9082 21.1335 23.6983 21.4765 23.464L22.1745 22.986L25.7672 23.768L27.784 20.232L25.3203 17.476L25.3797 16.628C25.4081 16.2092 25.4081 15.7888 25.3797 15.37L25.3203 14.522L27.786 11.768L25.7672 8.232L22.1745 9.012L21.4765 8.536C21.1335 8.30163 20.7748 8.09178 20.4029 7.908L19.6475 7.536L18.5185 4H18.5165ZM16.4997 10C18.0729 10 19.5817 10.6321 20.6941 11.7574C21.8066 12.8826 22.4315 14.4087 22.4315 16C22.4315 17.5913 21.8066 19.1174 20.6941 20.2426C19.5817 21.3679 18.0729 22 16.4997 22C14.9265 22 13.4177 21.3679 12.3053 20.2426C11.1929 19.1174 10.5679 17.5913 10.5679 16C10.5679 14.4087 11.1929 12.8826 12.3053 11.7574C13.4177 10.6321 14.9265 10 16.4997 10ZM16.4997 12C15.4509 12 14.4451 12.4214 13.7034 13.1716C12.9618 13.9217 12.5452 14.9391 12.5452 16C12.5452 17.0609 12.9618 18.0783 13.7034 18.8284C14.4451 19.5786 15.4509 20 16.4997 20C17.5485 20 18.5544 19.5786 19.296 18.8284C20.0376 18.0783 20.4543 17.0609 20.4543 16C20.4543 14.9391 20.0376 13.9217 19.296 13.1716C18.5544 12.4214 17.5485 12 16.4997 12Z" fill="black"/>
</svg>
