<svg xmlns="http://www.w3.org/2000/svg" width="24" height="19" viewBox="0 0 24 19" fill="none">
  <path d="M2.4 18.75C1.74 18.75 1.1752 18.5207 0.7056 18.0621C0.2352 17.6027 0 17.0508 0 16.4062V2.34375C0 1.69922 0.2352 1.14766 0.7056 0.689062C1.1752 0.229687 1.74 0 2.4 0H9.6L12 2.34375H21.6C22.26 2.34375 22.8252 2.57344 23.2956 3.03281C23.7652 3.49141 24 4.04297 24 4.6875V16.4062C24 17.0508 23.7652 17.6027 23.2956 18.0621C22.8252 18.5207 22.26 18.75 21.6 18.75H2.4ZM2.4 2.34375V16.4062H21.6V4.6875H11.01L8.61 2.34375H2.4Z" fill="black"/>
</svg>