<svg width="55" height="55" viewBox="0 0 55 55" fill="none" xmlns="http://www.w3.org/2000/svg">
<rect width="55" height="55" rx="8" stroke="black" stroke-width="55" mask="url(#path-1-inside-1_182_4630)"/>
<rect width="55" height="55" rx="8" fill="#818DAD"/>
<path d="M22 11.75H12V43.25H22V11.75ZM26 11.75V43.25H44V11.75H26ZM8 11.75C8 9.275 9.8 7.25 12 7.25H44C45.0609 7.25 46.0783 7.72411 46.8284 8.56802C47.5786 9.41193 48 10.5565 48 11.75V43.25C48 44.4435 47.5786 45.5881 46.8284 46.432C46.0783 47.2759 45.0609 47.75 44 47.75H12C10.9391 47.75 9.92172 47.2759 9.17157 46.432C8.42143 45.5881 8 44.4435 8 43.25V11.75ZM14 14H20V18.5H14V14ZM14 20.75H20V25.25H14V20.75ZM14 27.5H20V32H14V27.5Z" fill="black"/>
</svg>
