<svg width="40" height="40" viewBox="0 0 40 40" fill="none" xmlns="http://www.w3.org/2000/svg">
<path d="M19.9999 28.3333C20.4721 28.3333 20.8683 28.1733 21.1883 27.8533C21.5071 27.5344 21.6666 27.1389 21.6666 26.6666V21.6666H26.7083C27.1805 21.6666 27.5694 21.5066 27.8749 21.1866C28.1805 20.8678 28.3333 20.4722 28.3333 20C28.3333 19.5278 28.1733 19.1316 27.8533 18.8116C27.5344 18.4928 27.1388 18.3333 26.6666 18.3333H21.6666V13.2916C21.6666 12.8194 21.5071 12.4305 21.1883 12.125C20.8683 11.8194 20.4721 11.6666 19.9999 11.6666C19.5277 11.6666 19.1321 11.8261 18.8133 12.145C18.4933 12.465 18.3333 12.8611 18.3333 13.3333V18.3333H13.2916C12.8194 18.3333 12.4305 18.4928 12.1249 18.8116C11.8194 19.1316 11.6666 19.5278 11.6666 20C11.6666 20.4722 11.826 20.8678 12.1449 21.1866C12.4649 21.5066 12.861 21.6666 13.3333 21.6666H18.3333V26.7083C18.3333 27.1805 18.4933 27.5694 18.8133 27.875C19.1321 28.1805 19.5277 28.3333 19.9999 28.3333ZM19.9999 36.6666C17.6944 36.6666 15.5277 36.2289 13.4999 35.3533C11.4721 34.4789 9.70825 33.2916 8.20825 31.7916C6.70825 30.2916 5.52103 28.5278 4.64659 26.5C3.77103 24.4722 3.33325 22.3055 3.33325 20C3.33325 17.6944 3.77103 15.5278 4.64659 13.5C5.52103 11.4722 6.70825 9.70831 8.20825 8.20831C9.70825 6.70831 11.4721 5.52053 13.4999 4.64498C15.5277 3.77054 17.6944 3.33331 19.9999 3.33331C22.3055 3.33331 24.4721 3.77054 26.4999 4.64498C28.5277 5.52053 30.2916 6.70831 31.7916 8.20831C33.2916 9.70831 34.4788 11.4722 35.3533 13.5C36.2288 15.5278 36.6666 17.6944 36.6666 20C36.6666 22.3055 36.2288 24.4722 35.3533 26.5C34.4788 28.5278 33.2916 30.2916 31.7916 31.7916C30.2916 33.2916 28.5277 34.4789 26.4999 35.3533C24.4721 36.2289 22.3055 36.6666 19.9999 36.6666ZM19.9999 33.3333C23.6944 33.3333 26.8405 32.035 29.4383 29.4383C32.0349 26.8405 33.3333 23.6944 33.3333 20C33.3333 16.3055 32.0349 13.1594 29.4383 10.5616C26.8405 7.96498 23.6944 6.66665 19.9999 6.66665C16.3055 6.66665 13.1599 7.96498 10.5633 10.5616C7.96547 13.1594 6.66659 16.3055 6.66659 20C6.66659 23.6944 7.96547 26.8405 10.5633 29.4383C13.1599 32.035 16.3055 33.3333 19.9999 33.3333Z" fill="black"/>
</svg>
